<?xml version="1.0" standalone="no"?>
<!DOCTYPE svg PUBLIC "-//W3C//DTD SVG 20010904//EN"
 "http://www.w3.org/TR/2001/REC-SVG-20010904/DTD/svg10.dtd">
<svg version="1.0" xmlns="http://www.w3.org/2000/svg"
 width="1280.000000pt" height="1150.000000pt" viewBox="0 0 1280.000000 1150.000000"
 preserveAspectRatio="xMidYMid meet">
<metadata>
Created by potrace 1.15, written by Peter Selinger 2001-2017
</metadata>
<g transform="translate(0.000000,1150.000000) scale(0.100000,-0.100000)"
fill="#000000" stroke="none">
<path d="M6665 11490 c-259 -23 -1077 -158 -1345 -221 -327 -78 -834 -265
-1165 -430 -166 -83 -251 -141 -285 -193 -20 -31 -29 -37 -50 -33 -230 47
-471 62 -990 62 -478 0 -516 -3 -735 -55 -437 -104 -864 -312 -1053 -515 -65
-69 -93 -129 -151 -322 -62 -210 -60 -316 9 -458 67 -138 102 -168 312 -273
101 -50 215 -101 253 -113 94 -29 109 -43 101 -95 -7 -55 9 -74 89 -109 39
-16 64 -33 62 -39 -3 -7 -28 -48 -57 -92 -99 -150 -248 -494 -324 -747 -20
-65 -41 -127 -47 -138 -12 -24 -37 -34 -104 -43 -84 -12 -277 -64 -402 -107
-202 -71 -273 -117 -273 -176 0 -72 50 -91 273 -102 95 -5 180 -12 190 -16 27
-11 20 -23 -20 -34 -21 -6 -65 -18 -98 -27 -130 -35 -265 -114 -265 -155 0
-32 32 -23 219 57 278 120 311 140 311 189 0 31 -12 33 -230 39 -184 5 -248
17 -281 52 l-22 24 64 29 c119 53 343 133 419 148 57 11 202 16 605 22 368 5
537 11 551 19 28 15 32 53 21 179 -12 149 -7 177 44 230 24 24 56 51 71 59 55
29 216 11 498 -56 79 -19 175 -34 232 -37 91 -5 101 -4 152 21 131 64 127 177
-9 305 -84 78 -164 116 -441 207 -284 94 -568 164 -867 214 -130 22 -247 44
-258 50 -35 19 -15 35 56 43 94 10 145 25 145 42 0 20 -5 22 -136 44 -141 24
-222 48 -361 107 -277 119 -369 204 -414 384 -21 82 -17 273 5 330 10 25 30
79 45 120 21 61 36 85 86 136 111 112 312 249 424 289 24 8 82 37 130 65 175
101 429 170 833 226 293 41 1107 6 1401 -61 332 -75 739 -233 862 -335 78 -66
122 -82 170 -64 9 4 38 41 65 83 86 133 195 220 330 262 68 21 454 83 625 99
110 11 355 1 610 -26 482 -49 726 -104 1103 -248 259 -100 282 -102 282 -34 0
23 -11 40 -45 72 -26 23 -43 45 -39 49 14 13 80 7 272 -28 327 -59 454 -63
547 -19 48 22 83 65 132 160 49 94 65 111 119 122 35 7 39 11 36 35 -1 15 4
40 12 56 29 56 245 195 343 221 33 8 49 21 73 55 57 83 244 149 553 196 109
17 188 22 342 22 223 1 263 -5 472 -73 126 -41 153 -47 153 -31 0 18 -120 83
-224 121 -221 83 -511 91 -846 24 -165 -33 -290 -74 -427 -139 -93 -44 -118
-52 -140 -45 -16 4 -86 27 -158 50 -137 44 -830 222 -1050 270 -155 34 -353
64 -565 85 -185 18 -684 27 -825 15z m843 -115 c308 -31 554 -72 777 -130 50
-13 171 -44 270 -70 292 -75 568 -167 603 -200 11 -10 6 -16 -25 -31 -63 -30
-105 -23 -253 43 -164 74 -216 91 -232 75 -18 -18 -1 -39 39 -47 94 -17 313
-116 313 -141 0 -33 -88 -94 -136 -94 -10 0 -25 -7 -34 -15 -15 -14 -27 -13
-112 9 -52 14 -139 42 -194 62 -199 74 -232 83 -371 109 -298 54 -646 89 -979
100 -182 6 -250 13 -355 36 -53 12 -58 11 -125 -19 -99 -45 -127 -50 -356 -67
-324 -23 -515 -57 -814 -144 -322 -94 -767 -251 -944 -333 -148 -69 -179 -79
-201 -68 -31 17 -26 29 44 87 30 25 35 43 12 43 -8 0 -54 -16 -101 -36 -47
-19 -89 -32 -92 -29 -19 18 163 142 334 228 49 24 139 60 199 80 266 86 843
231 1165 293 102 19 189 40 194 45 14 13 -11 12 -169 -12 -294 -43 -752 -145
-1035 -230 -229 -69 -378 -134 -675 -293 -128 -69 -185 -90 -185 -68 0 16 45
50 106 80 67 34 122 88 105 105 -12 12 -53 -3 -143 -55 -85 -49 -154 -78 -181
-78 -71 2 213 157 338 185 44 10 83 26 105 44 73 58 264 139 544 231 469 153
1122 270 1811 324 106 8 607 -4 753 -19z m-587 -400 c72 -13 154 -20 549 -45
382 -24 841 -110 1173 -220 140 -47 137 -43 108 -130 -32 -94 -65 -143 -115
-172 -58 -33 -179 -30 -411 10 -220 38 -379 55 -421 47 -27 -5 -35 -13 -50
-50 -9 -25 -22 -45 -28 -45 -7 0 -78 22 -159 49 -223 75 -465 133 -727 175
-443 71 -1025 65 -1378 -13 -262 -59 -394 -139 -538 -326 -32 -43 -61 -72 -67
-68 -6 4 -46 35 -89 70 -43 35 -110 79 -149 98 -75 38 -91 58 -66 82 27 27
878 307 1137 374 267 69 620 115 806 105 117 -7 124 -6 180 20 133 60 135 61
245 39z m-4766 -2305 c112 -26 668 -200 797 -250 160 -62 287 -156 304 -227
33 -131 -181 -148 -501 -40 -96 32 -139 41 -212 45 -178 8 -297 -38 -353 -138
-21 -38 -25 -57 -24 -120 0 -42 10 -111 22 -157 12 -45 22 -86 22 -92 0 -8
-103 -11 -342 -10 -353 0 -470 7 -490 27 -14 14 31 144 137 402 137 331 237
528 284 558 27 18 150 31 226 25 28 -3 86 -13 130 -23z"/>
<path d="M6122 11289 c-222 -27 -981 -211 -1172 -285 -65 -25 -108 -50 -99
-58 2 -3 81 15 174 40 496 129 613 158 869 209 269 54 316 66 316 84 0 15 -23
17 -88 10z"/>
<path d="M8196 11101 c38 -37 579 -311 612 -311 24 0 21 4 -28 36 -69 43 -423
223 -509 258 -67 27 -92 33 -75 17z"/>
<path d="M5775 11035 c-548 -107 -1063 -272 -1162 -371 -44 -45 -10 -41 103
11 211 98 430 167 919 289 293 72 355 90 355 101 0 10 -45 3 -215 -30z"/>
<path d="M4632 10895 c-56 -19 -110 -39 -120 -44 -16 -10 -16 -10 1 -11 26 0
235 69 242 80 10 16 -14 11 -123 -25z"/>
<path d="M2245 8551 c-64 -29 -129 -113 -244 -317 -96 -171 -106 -145 -31 76
46 136 49 169 15 140 -39 -32 -125 -322 -151 -505 -28 -201 -28 -201 -9 -209
29 -11 53 12 69 68 35 119 245 510 343 638 80 104 82 142 8 109z"/>
<path d="M1736 8468 c-57 -123 -105 -278 -86 -278 15 0 59 93 71 152 6 28 24
82 40 119 33 76 33 79 18 79 -6 0 -25 -33 -43 -72z"/>
<path d="M1839 8390 c-46 -79 -140 -371 -138 -429 1 -40 39 50 110 260 64 190
73 247 28 169z"/>
<path d="M10115 11113 c-66 -9 -195 -47 -275 -80 -195 -80 -380 -210 -560
-392 -139 -141 -209 -234 -312 -413 -110 -192 -159 -252 -237 -292 -129 -67
-623 -83 -826 -27 -73 21 -80 26 -148 120 -42 59 -111 94 -192 99 -54 4 -66 1
-84 -17 -34 -34 -26 -58 42 -128 49 -52 57 -64 37 -58 -57 16 -131 56 -240
129 -175 118 -387 213 -625 281 -449 129 -784 126 -1215 -10 -168 -54 -210
-89 -210 -175 0 -54 14 -79 54 -95 43 -18 214 -39 521 -65 688 -57 948 -104
1023 -185 40 -43 40 -69 1 -106 -38 -36 -124 -63 -271 -86 -160 -25 -771 -25
-1078 0 -299 25 -556 54 -675 78 -142 28 -529 43 -925 35 -334 -6 -407 -13
-450 -44 -30 -22 -65 -120 -56 -157 8 -33 48 -52 196 -92 148 -40 185 -59 185
-94 0 -17 -10 -29 -35 -42 -30 -16 -51 -18 -150 -13 -63 3 -167 14 -230 25
-203 35 -355 45 -690 45 -366 1 -476 -9 -615 -55 -118 -39 -186 -84 -214 -142
-41 -85 -1 -149 136 -220 186 -96 415 -161 748 -212 376 -58 610 -120 881
-234 203 -86 385 -199 424 -264 40 -66 36 -162 -10 -220 -50 -63 -221 -116
-380 -117 -147 0 -612 62 -900 121 -189 39 -301 41 -361 8 -52 -29 -84 -85
-74 -129 9 -41 55 -85 127 -121 116 -59 183 -159 159 -239 -22 -74 -121 -175
-244 -249 -71 -43 -261 -100 -467 -140 -174 -34 -332 -51 -569 -61 -233 -9
-255 -12 -431 -54 -58 -13 -137 -29 -177 -35 -113 -17 -162 -43 -107 -57 62
-16 231 9 437 65 69 18 104 20 310 19 248 -1 386 14 632 67 315 68 447 129
591 270 100 97 122 168 87 271 -22 66 -114 157 -222 219 l-83 49 51 49 c60 57
45 57 271 8 385 -84 794 -136 1000 -128 249 10 389 68 455 189 58 104 34 211
-67 304 -233 215 -768 403 -1373 484 -166 22 -232 34 -242 44 -17 16 132 198
290 355 l105 104 248 -31 c390 -49 442 -54 549 -54 200 0 276 65 189 162 -45
50 -137 95 -234 115 -118 25 -150 56 -81 80 19 6 43 23 55 37 33 41 105 50
449 55 427 7 654 -7 1047 -66 293 -45 408 -53 816 -58 558 -7 847 13 952 66
68 35 121 115 108 166 -9 37 -71 101 -120 124 -107 52 -328 88 -771 126 -561
47 -721 74 -740 122 -8 22 31 61 85 85 55 24 234 72 373 99 130 26 353 35 472
20 134 -18 370 -67 466 -97 173 -55 430 -177 593 -283 170 -111 284 -143 379
-106 45 17 47 17 89 -3 66 -32 214 -53 428 -59 286 -8 434 13 577 83 89 43
120 79 207 241 84 159 141 247 233 360 207 257 482 441 773 520 80 22 117 26
240 27 190 1 331 -31 394 -89 61 -56 24 -85 -224 -170 -91 -32 -205 -75 -255
-97 -49 -22 -97 -42 -105 -44 -8 -3 -39 15 -69 41 -122 105 -225 158 -293 153
-40 -3 -43 -5 -43 -32 0 -25 6 -31 47 -47 41 -16 268 -146 268 -154 0 -1 -48
-45 -107 -96 -239 -211 -339 -402 -318 -612 7 -64 11 -75 41 -103 41 -40 153
-84 224 -91 108 -9 136 -38 86 -88 -22 -22 -110 -55 -147 -55 -57 0 -167 -58
-189 -101 -26 -48 31 -91 140 -105 85 -10 90 -15 90 -84 0 -54 3 -64 35 -99
19 -21 35 -49 35 -62 0 -12 -12 -71 -26 -131 l-26 -108 -221 0 c-122 0 -251
-5 -287 -10 -162 -26 -425 -119 -691 -246 -96 -46 -199 -89 -227 -95 -66 -16
-122 -4 -242 50 -81 37 -109 44 -265 71 -104 17 -147 94 -90 162 34 40 34 96
0 136 -13 16 -52 42 -87 58 -58 26 -73 29 -179 29 -85 0 -121 4 -134 15 -23
19 -67 109 -62 125 3 7 28 15 56 17 129 13 142 121 27 208 -90 68 -286 140
-379 140 -181 -1 -397 -109 -397 -199 0 -36 43 -75 101 -92 53 -16 67 -34 45
-57 -36 -41 -10 -82 51 -82 16 0 38 -6 49 -14 15 -12 17 -18 8 -33 -17 -26
-71 -21 -206 18 -140 41 -232 45 -275 13 -33 -25 -69 -83 -84 -138 -9 -33 -8
-43 9 -65 49 -67 66 -133 40 -159 -14 -14 -82 -15 -309 -5 l-156 6 -139 119
c-278 239 -419 313 -639 333 -183 18 -418 -71 -512 -193 -38 -50 -73 -140 -80
-207 -17 -157 124 -398 275 -472 48 -24 70 -28 137 -28 137 0 250 58 337 172
24 32 50 58 58 58 25 0 248 -374 235 -395 -14 -23 -298 -90 -1180 -280 -491
-106 -584 -122 -709 -121 -100 0 -113 -2 -159 -27 -69 -37 -131 -111 -182
-217 -52 -108 -67 -172 -68 -275 -1 -150 74 -244 267 -336 62 -29 118 -60 125
-67 24 -30 -25 -45 -264 -82 -88 -14 -216 -36 -285 -50 -102 -21 -150 -25
-260 -23 -121 2 -140 0 -184 -20 -75 -34 -163 -101 -247 -188 -119 -124 -150
-193 -169 -376 -12 -119 -2 -178 45 -275 47 -96 108 -171 153 -190 21 -8 55
-23 77 -33 71 -33 459 -129 608 -150 87 -13 138 -39 207 -109 63 -62 209 -156
366 -234 57 -29 104 -55 104 -58 0 -12 -121 -28 -280 -38 -265 -17 -335 -21
-700 -36 -727 -31 -996 -51 -1025 -75 -42 -35 -19 -123 52 -202 58 -64 89
-109 102 -148 16 -48 59 -79 366 -264 246 -149 302 -186 280 -186 -6 0 -98 48
-205 106 -235 127 -321 165 -379 167 -93 4 -54 -42 88 -103 201 -86 668 -345
1144 -634 1303 -791 1337 -812 1337 -826 0 -17 -92 19 -190 74 -55 31 -221
133 -370 227 -538 337 -1258 760 -1660 975 -259 139 -330 165 -358 131 -24
-29 48 -84 153 -117 160 -50 995 -537 1950 -1137 193 -121 392 -244 443 -273
51 -29 95 -56 98 -61 33 -53 -297 125 -831 451 -674 410 -1420 846 -1646 962
-93 47 -155 60 -165 33 -10 -25 12 -40 221 -148 303 -159 894 -501 1138 -659
195 -128 90 -86 -133 52 -207 128 -795 457 -1030 575 -122 62 -210 84 -210 52
0 -22 108 -86 390 -229 368 -187 611 -326 777 -445 72 -50 85 -78 19 -39 -286
167 -905 488 -1053 544 -76 30 -113 33 -113 10 0 -14 48 -55 104 -88 58 -34
55 -35 -29 -15 -78 19 -125 19 -125 1 0 -25 126 -99 455 -266 521 -265 725
-380 985 -553 158 -105 227 -157 212 -157 -12 0 -108 54 -397 225 -284 167
-346 201 -765 415 -212 108 -409 210 -438 225 l-53 28 -27 -26 c-43 -41 -93
-57 -181 -57 l-80 0 -25 82 c-14 46 -41 137 -61 203 -62 206 -105 378 -105
421 0 31 5 45 21 56 21 13 21 17 11 94 -42 291 -63 1048 -33 1174 14 61 15 59
61 -415 52 -525 163 -1045 271 -1272 30 -63 63 -93 81 -75 12 12 -8 96 -72
306 -113 376 -164 651 -202 1101 -18 205 -17 1381 1 1550 22 212 24 245 13
245 -5 0 -17 -16 -27 -35 -54 -115 -75 -287 -100 -815 -16 -347 -23 -427 -35
-435 -25 -16 -25 25 6 675 17 364 18 498 4 484 -38 -38 -72 -709 -72 -1404 0
-524 10 -757 42 -985 11 -77 20 -141 20 -142 0 -2 -4 -3 -9 -3 -23 0 -95 240
-141 470 -29 143 -38 294 -19 316 10 13 15 58 17 178 5 365 23 1079 28 1191 5
84 3 117 -4 110 -15 -15 -30 -225 -47 -695 -16 -438 -29 -646 -46 -720 -23
-99 27 -441 117 -805 69 -277 210 -735 241 -784 8 -13 19 -55 24 -94 11 -83
41 -141 102 -190 53 -43 69 -51 280 -141 447 -191 981 -468 1785 -928 480
-274 643 -379 757 -489 80 -77 139 -108 206 -109 25 0 104 9 175 20 71 10 203
29 294 40 201 26 225 36 265 112 32 62 45 72 45 34 0 -13 8 -34 18 -46 16 -20
31 -23 123 -29 l104 -6 -100 -24 c-169 -40 -381 -120 -400 -151 -13 -20 24
-21 101 -1 359 90 1430 238 1984 272 214 14 1244 19 1256 6 14 -14 -27 -80
-121 -197 -104 -129 -122 -160 -158 -275 -48 -153 -59 -229 -55 -384 l3 -144
-38 -31 -39 -31 -176 -3 c-266 -6 -892 24 -1137 53 -128 16 -555 30 -1193 41
l-394 6 -198 94 c-110 51 -284 130 -387 174 -314 136 -440 203 -848 458 -472
295 -588 381 -873 651 -118 111 -253 233 -300 270 -48 38 -136 122 -196 187
-171 186 -216 220 -202 154 24 -124 480 -597 896 -930 150 -120 341 -285 600
-515 342 -306 459 -399 477 -382 12 13 -12 46 -63 84 -142 105 -450 402 -426
410 7 3 85 -39 175 -92 289 -171 958 -495 1251 -606 56 -21 129 -42 163 -48
64 -10 148 -38 273 -91 113 -48 229 -76 520 -126 257 -44 273 -46 530 -51 261
-5 688 8 865 27 339 38 632 116 995 267 210 88 364 149 560 223 275 104 566
247 688 338 29 22 96 63 150 91 169 89 392 272 701 575 182 180 308 324 457
521 257 342 420 610 732 1205 204 390 215 410 224 410 4 0 5 -6 3 -12 -48
-145 -96 -301 -93 -310 7 -20 177 346 239 515 55 149 31 160 -41 18 -96 -192
-93 -127 5 127 89 227 108 309 108 452 0 79 -5 135 -17 180 -19 68 -67 173
-93 202 -36 39 -189 29 -292 -19 -73 -35 -170 -135 -241 -247 -30 -48 -63 -97
-72 -109 -16 -21 -16 -18 -2 43 21 95 33 127 75 211 100 202 281 376 444 430
122 40 338 50 423 19 91 -33 161 -314 149 -594 -8 -187 -52 -367 -186 -778
-117 -355 -216 -579 -266 -598 -16 -6 -24 -24 -34 -74 -17 -85 -132 -319 -241
-491 -46 -71 -120 -190 -166 -263 -111 -176 -149 -231 -272 -397 -58 -77 -121
-174 -141 -215 -32 -68 -55 -95 -241 -280 -372 -372 -767 -718 -1002 -877
-266 -181 -403 -250 -834 -423 -153 -62 -329 -134 -389 -160 -199 -86 -577
-198 -895 -265 -263 -55 -972 -103 -1250 -85 -144 10 -484 51 -570 69 -25 5
-157 32 -295 61 -329 67 -403 86 -705 181 -285 90 -590 198 -749 266 -435 183
-1003 528 -1351 818 -251 210 -833 780 -990 970 -79 95 -90 111 -244 348 -52
81 -125 189 -162 240 -76 105 -107 163 -165 309 -116 290 -218 619 -275 892
-19 94 -47 215 -60 270 -30 118 -38 162 -64 326 -10 69 -28 153 -39 187 -28
86 -8 153 45 153 42 0 39 22 -9 66 -26 23 -52 55 -59 71 -10 21 -12 120 -11
408 2 410 15 715 38 918 17 148 19 253 5 262 -15 9 -38 -35 -54 -105 -37 -161
-63 -469 -76 -923 -5 -185 -15 -377 -21 -426 l-12 -89 31 -60 c36 -69 39 -94
17 -145 -22 -53 -19 -87 16 -161 24 -52 39 -111 65 -264 18 -108 51 -285 74
-392 23 -107 54 -259 71 -337 35 -169 65 -272 108 -372 17 -40 34 -92 37 -115
10 -63 182 -403 288 -568 156 -244 336 -495 426 -597 138 -156 747 -761 855
-851 291 -240 656 -491 951 -653 55 -31 190 -97 300 -148 252 -116 329 -154
380 -191 31 -22 70 -35 165 -54 68 -14 162 -41 209 -59 47 -18 110 -38 140
-45 62 -14 90 -27 106 -48 6 -8 39 -17 80 -22 63 -6 114 -23 114 -35 0 -3 -18
-2 -40 1 -47 8 -50 -2 -15 -45 45 -53 105 -66 315 -67 164 -1 203 -5 342 -32
439 -88 949 -116 1468 -83 160 10 273 12 440 5 124 -5 338 -9 475 -8 219 0
263 3 354 23 140 30 244 71 329 131 97 68 135 125 140 210 6 100 22 112 228
184 237 81 549 228 704 331 113 75 123 74 186 -22 28 -43 79 -132 114 -198 91
-175 139 -242 244 -343 105 -100 226 -185 338 -237 164 -75 466 -138 673 -139
113 -1 125 1 201 32 147 59 249 127 364 242 164 164 340 428 376 563 18 68 18
158 -1 249 -51 240 -194 370 -515 468 -172 52 -284 126 -340 224 -43 73 -38
126 14 168 35 29 63 22 119 -31 108 -101 188 -115 350 -60 187 62 287 146 374
314 183 355 225 732 137 1225 -50 275 -101 420 -191 542 l-50 68 44 127 c86
251 196 648 224 813 21 120 16 319 -9 424 -56 227 -103 302 -217 347 -53 21
-76 24 -200 23 -115 0 -154 -4 -220 -22 -106 -31 -228 -89 -293 -141 -157
-125 -311 -408 -368 -676 -23 -111 -24 -300 0 -385 23 -84 54 -139 83 -146 14
-4 26 -18 33 -39 17 -51 143 -145 195 -145 21 0 130 -110 140 -141 9 -28 -448
-892 -555 -1049 -64 -95 -57 -93 -265 -70 -415 46 -773 67 -1390 80 -500 11
-1116 0 -1435 -25 -474 -37 -556 -40 -584 -21 -39 25 -32 35 27 38 45 3 52 6
55 26 2 12 11 26 20 31 31 17 133 30 342 46 381 28 611 35 1129 35 826 0 1449
-33 1820 -96 80 -13 151 -24 158 -24 7 0 13 11 13 25 0 28 -25 44 -115 71
l-60 19 67 5 c36 3 69 8 72 11 14 14 -32 51 -74 60 -25 6 -216 13 -425 17
-255 4 -354 8 -300 13 160 14 597 32 644 26 58 -7 101 15 120 62 11 26 11 34
-3 56 -22 34 -20 42 15 60 22 12 29 22 27 38 -2 18 -17 27 -75 45 -98 32 -98
62 1 62 52 0 88 22 68 42 -19 19 -214 23 -400 8 -84 -7 -155 -10 -158 -7 -8 8
76 24 304 57 246 35 286 46 290 77 2 14 -3 23 -16 27 -10 4 -119 -5 -241 -19
-122 -14 -225 -25 -229 -24 -30 4 296 77 410 92 l93 12 5 55 c4 36 19 81 43
128 31 60 36 76 26 88 -15 19 -9 25 72 72 75 44 94 78 63 113 -39 45 -307 150
-774 304 -339 112 -427 145 -409 155 18 10 199 54 514 126 369 83 495 122 495
154 0 32 -191 30 -395 -5 -538 -91 -1809 -449 -2083 -586 -53 -27 -99 -45
-103 -41 -3 4 -15 31 -25 60 -21 60 -15 78 31 101 15 7 163 49 328 92 329 87
514 139 917 259 350 105 464 133 715 175 272 46 314 54 348 67 31 12 33 20 12
38 -22 18 -18 44 10 78 33 39 32 53 -10 108 -19 25 -35 51 -35 58 0 7 -15 33
-34 57 -40 50 -55 106 -56 199 -1 84 -16 191 -29 199 -6 4 -3 18 9 36 11 17
20 46 20 66 0 25 7 42 25 59 20 18 25 34 25 69 1 83 67 194 207 345 100 108
121 142 101 162 -21 21 -141 41 -411 69 -490 51 -626 66 -653 75 -16 4 -24 9
-19 9 6 1 66 10 134 21 187 28 196 52 50 130 -110 59 -143 85 -178 140 -27 42
-35 66 -32 98 2 21 50 13 119 -22 137 -68 268 -95 502 -103 179 -6 338 6 508
38 126 24 399 107 467 141 116 60 272 204 315 293 30 61 48 160 62 328 20 245
-10 414 -107 607 -23 47 -55 114 -69 150 -15 36 -75 164 -134 284 -106 218
-107 221 -111 302 -4 99 12 229 41 338 34 127 102 180 206 161 56 -10 143
-106 221 -246 153 -272 190 -317 306 -363 138 -55 142 -21 12 107 -51 51 -105
113 -120 140 -41 70 -123 325 -148 462 -21 113 -24 121 -57 150 -20 16 -78 69
-130 118 -107 98 -94 94 -262 77 -215 -23 -375 -94 -452 -202 -14 -21 -23 -54
-29 -110 -13 -129 -39 -138 -132 -50 -250 236 -634 500 -715 490 l-26 -3 34
-33 c19 -18 116 -97 214 -175 508 -402 671 -562 848 -827 70 -105 336 -630
421 -831 81 -192 96 -297 77 -544 -17 -229 -52 -306 -210 -465 -94 -95 -191
-160 -239 -160 -27 0 -27 10 0 44 12 15 19 29 17 32 -3 2 -51 -5 -107 -17 -55
-11 -109 -19 -118 -17 -9 2 27 20 80 41 163 65 192 107 58 86 -40 -6 -75 -8
-78 -5 -13 13 8 33 47 45 29 9 63 34 119 90 144 144 171 202 171 365 0 122
-15 188 -73 332 -25 60 -59 154 -77 209 -55 168 -79 208 -259 435 -345 436
-500 591 -981 981 -269 218 -344 269 -395 269 -56 0 -22 -40 135 -158 186
-139 507 -429 755 -683 236 -242 368 -432 437 -629 33 -95 33 -96 32 -280 0
-194 -20 -354 -50 -411 -18 -36 -49 -49 -114 -49 -73 0 -81 18 -92 193 -19
321 -34 378 -120 451 -103 88 -196 111 -398 96 -445 -33 -636 -144 -768 -446
-78 -178 -83 -362 -12 -399 66 -34 10 -60 -106 -50 -33 3 -223 17 -424 31
-395 27 -670 51 -678 59 -10 10 36 64 162 194 151 154 309 284 404 334 126 66
341 120 527 132 138 10 179 28 210 97 14 31 32 108 44 187 23 142 57 287 91
385 44 130 44 216 0 434 -21 106 -44 144 -118 193 -78 52 -132 110 -132 140 0
64 124 194 260 271 57 33 203 87 389 144 80 25 184 66 231 90 204 108 427 280
465 359 20 44 17 109 -6 113 -11 2 -28 -15 -49 -50 -109 -178 -349 -353 -572
-418 -293 -85 -506 -177 -640 -275 -79 -58 -128 -157 -128 -259 0 -45 6 -62
35 -105 l35 -51 -34 0 c-64 0 -176 109 -176 170 0 38 65 216 102 278 18 31 67
91 107 135 145 153 356 265 706 378 205 65 251 98 242 176 -2 24 -12 54 -21
68 -43 65 -151 113 -301 134 -73 11 -247 13 -310 4z m1804 -1074 c56 -24 101
-66 151 -139 35 -52 80 -133 80 -145 0 -12 -41 -3 -121 26 -102 38 -143 36
-273 -14 l-88 -34 -29 -73 c-15 -41 -35 -80 -43 -88 -13 -14 -13 -9 -2 39 7
30 24 89 37 131 23 77 23 78 5 128 -23 63 -16 107 23 144 61 59 162 69 260 25z
m-4278 -17 c78 -50 95 -91 22 -53 -35 18 -93 66 -93 76 0 12 30 2 71 -23z
m2355 -558 c15 -22 16 -33 4 -97 -19 -110 -47 -176 -76 -183 -13 -4 -31 -1
-39 6 -18 15 -35 73 -35 120 0 78 -55 120 -157 120 -59 0 -54 16 10 34 73 21
91 23 189 25 84 1 88 0 104 -25z m1584 -15 c0 -16 -4 -29 -10 -29 -5 0 -10 16
-10 36 0 21 4 33 10 29 6 -3 10 -19 10 -36z m-4458 -33 c92 -17 205 -74 172
-87 -77 -30 -384 27 -384 72 0 29 93 36 212 15z m-4482 -129 c0 -8 -37 -67
-82 -133 -100 -145 -158 -243 -158 -266 0 -23 -30 -39 -52 -27 -30 16 -23 86
17 165 40 79 143 198 212 243 51 34 63 37 63 18z m-200 -27 c0 -5 -17 -32 -37
-59 -21 -28 -66 -102 -101 -165 -34 -63 -67 -118 -73 -122 -16 -9 -59 36 -59
62 0 57 200 294 249 294 12 0 21 -4 21 -10z m-206 -32 c-20 -66 -114 -205
-158 -233 -26 -17 -46 -13 -46 9 0 14 74 118 137 194 47 55 80 70 67 30z
m-154 -28 c0 -28 -36 -99 -68 -132 -41 -45 -103 -29 -87 22 14 45 107 130 143
130 6 0 12 -9 12 -20z m4908 -47 c-10 -2 -28 -2 -40 0 -13 2 -5 4 17 4 22 1
32 -1 23 -4z m247 -23 c4 -6 -12 -10 -42 -10 -35 0 -44 3 -33 10 20 13 67 13
75 0z m-2150 -137 c55 -29 106 -86 146 -161 30 -59 81 -112 107 -112 6 0 14
-4 17 -10 9 -15 -98 -12 -119 3 -11 8 -22 34 -27 67 -10 65 -57 118 -138 157
-105 49 -223 39 -321 -27 -93 -62 -102 -23 -11 44 75 55 113 66 216 63 68 -3
100 -8 130 -24z m1565 11 c53 -4 92 -14 135 -34 124 -59 321 -76 500 -44 50 9
140 17 201 18 97 1 114 -1 133 -18 54 -48 -40 -66 -359 -66 -375 0 -576 25
-728 90 -92 40 -96 77 -8 66 28 -4 85 -9 126 -12z m-165 -124 c203 -59 549
-102 820 -102 188 -1 280 11 353 42 23 10 42 17 42 15 0 -12 -82 -56 -139 -75
-247 -82 -976 -3 -1136 124 -26 20 -23 20 60 -4z m-1427 -37 c130 -97 47 -309
-126 -321 -70 -5 -114 21 -150 86 -57 103 -14 198 113 249 44 18 130 10 163
-14z m-426 -155 c-9 -9 -12 -4 -11 23 0 32 1 33 11 11 8 -17 8 -26 0 -34z
m4503 16 c-11 -9 -56 -34 -100 -56 -143 -72 -277 -151 -417 -245 -76 -51 -142
-93 -147 -93 -12 0 -21 25 -21 60 0 54 99 119 345 226 120 52 321 124 345 124
11 -1 10 -4 -5 -16z m295 -4 c0 -14 -44 -30 -81 -30 -37 0 -38 18 -1 26 15 3
32 7 37 9 22 7 45 4 45 -5z m-3670 -80 c0 -24 -11 -32 -27 -19 -14 12 -18 51
-6 63 9 9 33 -23 33 -44z m3514 39 c-8 -13 -67 -39 -89 -39 -30 0 -14 19 28
33 52 19 70 20 61 6z m-2342 -34 c140 -6 294 -21 311 -32 37 -23 -130 -31
-283 -13 -110 12 -240 40 -240 52 0 4 17 6 38 4 20 -3 99 -8 174 -11z m-944
-35 c3 -33 -12 -55 -32 -47 -16 6 -23 57 -9 71 14 14 38 0 41 -24z m-168 -133
c30 -22 78 -63 105 -92 80 -82 330 -240 484 -305 178 -76 675 -170 896 -170
108 0 282 23 415 55 130 32 176 46 315 101 61 23 132 48 158 54 27 6 119 43
205 84 173 81 202 92 202 78 0 -31 -387 -238 -571 -306 -128 -47 -259 -85
-339 -97 -113 -17 -464 -22 -634 -10 -379 28 -693 128 -948 303 -100 68 -254
200 -408 348 l-105 101 85 -52 c47 -28 110 -70 140 -92z m543 127 c3 -4 2 -14
-3 -24 -6 -12 -26 -19 -60 -22 -68 -7 -106 -35 -102 -77 2 -27 -1 -31 -23 -31
-29 0 -65 32 -65 58 0 10 11 29 25 42 37 35 207 75 228 54z m2721 -5 c-6 -10
-65 -39 -79 -39 -15 0 -1 21 23 34 32 18 66 21 56 5z m-4338 -69 c88 -66 117
-76 206 -66 79 9 131 30 193 77 27 21 53 35 57 33 15 -10 -33 -84 -70 -108
-52 -34 -146 -59 -222 -60 -84 0 -144 28 -205 96 -95 106 -78 118 41 28z
m1804 40 c0 -31 -88 -222 -115 -249 l-23 -24 -27 27 c-21 21 -25 33 -20 54 14
55 144 212 175 212 6 0 10 -9 10 -20z m4284 -4 c42 -17 131 -117 146 -162 9
-28 10 -46 1 -74 -15 -52 -35 -56 -66 -16 -18 24 -37 36 -63 41 -20 4 -71 21
-112 38 -59 25 -88 31 -135 30 -85 -2 -207 -36 -298 -83 -114 -58 -156 -51
-141 24 6 34 5 36 -19 36 -67 0 -167 -254 -167 -425 0 -83 9 -105 40 -105 23
0 135 -57 151 -76 12 -15 2 -16 -107 -13 -151 5 -154 7 -154 105 0 127 50 312
116 429 21 38 34 76 34 97 0 43 18 61 97 93 171 69 571 105 677 61z m-2911
-21 c109 -28 193 -83 185 -122 -2 -14 -17 -20 -69 -27 -60 -8 -71 -6 -121 16
-30 14 -84 53 -119 86 l-64 61 65 1 c36 0 92 -7 123 -15z m-312 -38 c28 -19
35 -31 40 -67 3 -25 19 -68 37 -96 18 -28 32 -54 32 -58 0 -3 -11 -6 -25 -6
-54 0 -147 122 -162 213 -5 34 -4 37 19 37 14 0 40 -10 59 -23z m-796 -11 c18
-13 18 -15 -7 -45 -28 -32 -52 -120 -46 -168 2 -19 10 -29 23 -31 31 -6 38
-18 20 -36 -23 -22 -77 -20 -109 5 -21 16 -26 29 -26 64 0 57 31 140 71 188
33 40 45 44 74 23z m530 -27 c8 -15 15 -39 15 -52 0 -13 12 -42 26 -63 34 -49
43 -114 19 -134 -15 -12 -23 -11 -64 10 -62 34 -81 73 -81 172 0 54 4 81 15
91 20 21 53 10 70 -24z m-261 0 c31 -37 33 -59 6 -66 -23 -6 -24 -7 -24 -100
-1 -78 -12 -99 -46 -88 -58 18 -81 153 -40 243 16 36 23 42 49 42 20 0 37 -9
55 -31z m700 -93 c20 -31 20 -36 1 -36 -15 0 -75 74 -75 92 0 14 55 -28 74
-56z m944 -2 c-43 -40 -78 -56 -78 -36 0 21 107 98 120 85 3 -2 -16 -24 -42
-49z m-2158 -18 c0 -27 -33 -56 -62 -56 -27 0 -21 25 13 54 38 32 49 33 49 2z
m4119 -54 c82 -40 95 -104 56 -272 -30 -129 -28 -173 9 -255 28 -61 84 -117
145 -147 69 -33 188 -37 282 -8 133 40 252 113 345 212 57 60 79 97 100 170
16 51 39 71 55 47 23 -34 -23 -267 -74 -369 -39 -79 -79 -111 -210 -168 -147
-65 -231 -84 -372 -85 -181 -1 -339 42 -470 128 -59 39 -71 43 -83 32 -18 -19
3 -70 52 -125 20 -22 36 -44 36 -50 0 -6 -25 -8 -66 -4 -54 4 -66 2 -62 -9 15
-45 149 -77 376 -88 89 -5 165 -11 168 -14 10 -9 -67 -27 -146 -33 -93 -8
-109 -16 -103 -48 4 -21 0 -26 -21 -32 -36 -9 -175 13 -266 42 -143 46 -250
125 -233 172 12 33 62 98 143 186 84 92 140 166 140 186 0 17 -40 28 -130 36
l-82 7 -15 36 c-24 57 -29 215 -9 284 39 133 164 204 336 191 36 -3 80 -13 99
-22z m-4164 -123 c73 -22 130 -47 123 -55 -12 -12 -288 74 -288 89 0 7 91 -12
165 -34z m1335 5 c0 -11 -114 -55 -208 -81 -84 -22 -123 -26 -287 -30 -104 -3
-188 -3 -185 0 3 3 62 13 130 22 168 21 343 51 438 75 81 20 112 24 112 14z
m-890 -89 c47 -4 101 -10 120 -15 29 -7 22 -8 -42 -9 -90 -1 -229 16 -243 31
-7 6 5 8 35 4 25 -3 83 -8 130 -11z m4555 -84 c-21 -77 -39 -117 -68 -148 -20
-22 -47 -31 -47 -15 0 4 28 65 62 136 66 134 84 143 53 27z m-5793 -41 c57
-45 131 -94 165 -110 87 -41 90 -59 19 -124 l-56 -52 0 -77 c0 -74 1 -79 35
-116 66 -72 233 -171 383 -225 39 -14 120 -35 180 -47 59 -11 160 -34 225 -50
169 -41 323 -52 619 -46 350 6 469 32 603 128 71 51 100 101 100 173 0 57 2
61 33 82 59 40 184 87 232 87 25 0 90 -5 145 -11 55 -6 165 -11 245 -12 231 0
450 -25 450 -49 0 -11 -55 -31 -86 -31 -34 0 -160 -41 -419 -137 -247 -91
-377 -134 -630 -208 -219 -64 -297 -104 -233 -120 52 -13 497 121 931 281 249
92 383 134 429 134 16 0 60 13 96 29 37 16 94 37 127 46 63 18 91 36 81 53
-15 25 -260 46 -826 73 -135 6 -246 12 -247 13 -5 4 149 132 177 147 27 15 36
15 74 4 61 -19 295 -48 791 -100 532 -55 545 -57 545 -75 0 -18 -495 -211
-1165 -455 -373 -136 -664 -247 -757 -288 -58 -27 -88 -57 -88 -91 0 -22 -37
-66 -55 -66 -26 0 -93 -72 -115 -122 -19 -42 -24 -76 -28 -168 -5 -136 7 -211
48 -299 19 -39 27 -68 21 -74 -12 -12 -183 9 -230 29 -89 37 -111 95 -111 289
0 151 10 220 48 322 l27 73 40 1 c22 1 72 1 110 -1 73 -2 155 14 155 30 0 11
-32 29 -74 41 -17 5 -492 97 -1056 205 -564 107 -1317 254 -1675 326 -357 72
-740 148 -850 169 -110 22 -215 45 -234 51 -31 9 -33 12 -18 23 23 17 361 99
737 179 543 117 842 191 950 235 14 5 26 10 27 10 1 1 48 -35 105 -79z m5331
-96 l52 -36 90 6 c89 6 124 -1 111 -23 -9 -14 -207 -15 -259 0 -51 14 -98 89
-56 89 5 0 33 -16 62 -36z m-79 -96 c48 -31 55 -33 148 -33 54 0 98 -3 98 -7
0 -27 -235 -43 -293 -19 -44 17 -60 91 -19 91 8 0 38 -15 66 -32z m-4485 -178
c76 -29 131 -59 131 -70 0 -18 -24 -11 -105 31 -117 59 -130 78 -26 39z
m-2673 -60 c282 -52 1512 -299 1714 -345 163 -36 694 -144 1065 -215 372 -71
850 -171 858 -179 4 -4 5 -14 2 -22 -8 -21 -85 -69 -111 -69 -12 0 -27 -6 -33
-14 -9 -11 -6 -18 15 -34 l28 -19 -14 -116 c-15 -134 -9 -281 14 -326 30 -58
24 -65 -51 -58 -117 10 -690 135 -742 161 -14 8 -35 23 -45 35 -11 12 -36 26
-58 31 -26 8 -43 20 -53 40 -9 18 -23 30 -35 30 -15 0 -20 7 -20 28 0 42 20
103 36 109 20 7 17 30 -5 43 -11 5 -40 10 -65 10 -57 0 -66 -15 -66 -109 0
-38 -4 -73 -10 -76 -17 -10 -69 24 -86 57 -15 30 -15 32 2 44 43 30 55 48 52
84 -4 46 -24 49 -73 10 -21 -16 -41 -30 -46 -30 -4 0 -17 17 -30 38 -33 54
-60 82 -82 82 -18 0 -18 -6 -12 -120 6 -88 5 -120 -4 -120 -15 0 -28 36 -48
125 -18 82 -36 115 -63 115 -27 0 -53 -46 -74 -128 -29 -113 -30 -114 -54 -42
-28 82 -28 90 8 135 33 42 34 44 21 64 -8 13 -19 13 -73 3 -52 -11 -77 -10
-148 2 -47 9 -90 16 -97 16 -20 0 -42 -29 -54 -73 -19 -75 -32 -87 -95 -87
-38 0 -69 7 -102 24 -51 26 -122 96 -122 120 0 17 46 56 66 56 27 0 94 33 94
46 0 7 -10 16 -22 18 -59 12 -191 25 -199 21 -5 -3 -18 -37 -29 -75 -23 -76
-37 -90 -94 -90 -36 0 -141 35 -150 49 -3 4 3 25 14 46 23 45 14 72 -28 80
-29 7 -34 9 -75 38 -14 10 -54 23 -90 28 -83 13 -107 3 -107 -46 0 -64 23 -83
61 -49 23 21 50 11 72 -25 9 -16 17 -31 17 -34 0 -3 -18 -8 -41 -12 -23 -4
-48 -15 -57 -26 -14 -16 -17 -17 -27 -2 -8 11 -42 21 -100 29 -48 7 -95 20
-105 29 -9 8 -33 15 -53 15 -28 0 -43 7 -64 30 l-27 30 -27 -26 c-32 -30 -42
-27 -69 26 -27 52 -34 55 -76 29 -47 -29 -57 -18 -84 85 -25 99 -25 190 1 281
34 119 34 125 9 125 -12 0 -34 -13 -50 -28 -33 -34 -46 -89 -55 -246 -4 -59
-9 -114 -12 -121 -2 -8 -18 -18 -34 -24 -23 -8 -30 -17 -35 -50 -4 -23 -9 -41
-12 -41 -3 0 -42 36 -88 80 -68 65 -91 81 -124 86 -52 9 -60 27 -60 143 0 210
63 340 166 341 17 0 130 -18 250 -40z m3984 -7 c-51 -22 -224 -60 -390 -84
-164 -24 -353 -22 -535 6 -99 15 -201 43 -192 52 3 2 41 -1 84 -9 99 -16 584
-16 738 1 61 6 148 20 195 30 47 10 96 19 110 19 22 0 21 -1 -10 -15z m2245
-78 c-50 -31 -189 -85 -218 -85 -19 0 -18 3 10 21 47 30 194 89 223 89 23 -1
21 -3 -15 -25z m-3185 -166 c85 -15 159 -21 285 -21 195 0 299 11 476 52 149
35 172 37 167 13 -5 -25 -93 -58 -213 -79 -123 -22 -499 -25 -675 -5 -231 26
-396 69 -439 115 -21 22 -18 22 131 -16 84 -21 205 -48 268 -59z m3124 -54
c-30 -22 -243 -118 -854 -383 -648 -280 -707 -305 -723 -299 -34 12 1094 518
1488 668 99 37 126 42 89 14z m-299 -16 c-12 -19 -393 -175 -403 -164 -15 15
151 91 318 146 100 33 93 32 85 18z m299 -90 c-12 -21 -282 -144 -530 -243
-227 -90 -281 -109 -258 -87 24 24 756 340 787 341 5 0 5 -5 1 -11z m-744 -89
c0 -14 -194 -110 -625 -308 -560 -257 -645 -289 -661 -248 -8 21 13 46 38 46
54 0 289 96 759 310 312 143 404 183 459 200 14 5 26 9 28 9 1 1 2 -3 2 -9z
m776 -15 c-20 -16 -162 -65 -186 -65 -12 0 -12 2 0 15 21 20 139 64 175 64 28
0 29 -1 11 -14z m-6226 -77 c0 -10 -4 -18 -10 -18 -5 0 -10 15 -10 33 0 24 3
28 10 17 5 -8 10 -23 10 -32z m6348 0 c-2 -7 -101 -45 -219 -84 -342 -112
-923 -326 -1454 -534 -323 -127 -390 -150 -431 -150 -38 0 -64 29 -64 72 0 30
4 32 93 43 60 8 226 60 399 126 613 233 1545 536 1656 539 15 0 22 -5 20 -12z
m-1413 -43 c-131 -75 -505 -241 -679 -301 -74 -26 -96 -29 -96 -15 0 13 104
61 360 164 129 53 282 116 340 140 126 54 158 59 75 12z m-4768 -170 c169 -24
244 -47 210 -66 -7 -5 -60 -15 -118 -25 -57 -9 -120 -23 -139 -31 -30 -12 -33
-16 -18 -24 12 -7 86 -2 235 14 239 27 277 26 505 -13 254 -44 777 -159 1538
-340 510 -121 709 -166 980 -219 113 -22 281 -56 374 -76 253 -53 377 -63 511
-41 201 33 633 146 1265 331 530 155 883 245 898 230 14 -13 -207 -94 -867
-317 -451 -152 -588 -202 -606 -220 -14 -14 67 -2 188 28 169 42 1037 338
1239 422 147 61 155 66 140 84 -9 12 14 20 146 52 86 20 189 51 227 69 66 30
77 32 185 32 66 0 123 -5 134 -11 17 -10 16 -13 -16 -37 -106 -81 -550 -259
-1408 -563 -454 -162 -570 -195 -910 -265 -191 -39 -212 -41 -315 -35 -137 7
-344 33 -725 91 -162 24 -401 58 -530 75 -129 17 -320 44 -425 60 -384 59
-781 103 -762 84 8 -8 111 -28 397 -74 275 -45 356 -64 381 -86 22 -20 17 -35
-32 -100 -67 -88 -93 -167 -124 -374 -21 -146 -23 -155 -46 -179 -27 -28 -63
-27 -87 4 -11 14 -27 25 -36 25 -29 0 -29 -47 -2 -136 15 -47 26 -90 24 -96
-2 -6 -26 34 -53 88 -51 101 -77 124 -83 73 -2 -15 6 -54 17 -87 23 -66 26
-92 13 -92 -15 0 -39 33 -71 97 -34 69 -67 99 -88 81 -7 -6 -13 -17 -13 -24 0
-22 -14 -17 -45 16 -56 58 -72 26 -33 -67 37 -89 -4 -85 -59 6 -27 46 -38 79
-59 179 -2 12 -11 22 -19 22 -31 0 -30 -73 1 -172 9 -26 14 -58 12 -70 l-3
-23 -22 24 c-12 13 -40 60 -62 105 -44 89 -72 122 -96 113 -19 -8 -19 -43 0
-97 32 -91 5 -88 -38 4 -29 62 -68 96 -108 96 -54 0 -59 -7 -59 -81 0 -40 -4
-69 -10 -69 -13 0 -47 56 -61 100 -19 65 -42 111 -53 107 -7 -2 -11 -36 -11
-88 0 -46 -4 -86 -10 -89 -5 -3 -26 42 -45 100 -20 58 -42 115 -50 128 -26 41
-77 64 -149 70 -81 5 -101 -8 -101 -69 0 -21 -2 -39 -5 -39 -3 0 -18 14 -33
31 -19 21 -41 33 -72 39 -65 12 -73 6 -66 -51 6 -40 4 -49 -9 -49 -8 0 -21 16
-30 35 -16 39 -62 65 -114 65 -44 0 -44 3 -5 -139 15 -51 -20 -13 -62 68 -45
89 -56 101 -91 101 -15 0 -28 11 -38 31 -28 53 -40 31 -38 -70 1 -50 -2 -91
-7 -91 -5 0 -18 30 -31 68 -29 88 -33 93 -80 86 -35 -6 -39 -4 -49 20 -5 15
-9 32 -7 39 1 8 -22 14 -73 18 -41 3 -82 8 -91 12 -8 4 -32 38 -54 75 -50 87
-84 132 -101 132 -17 0 -57 -77 -48 -91 3 -6 26 -19 50 -30 51 -21 59 -36 67
-134 l7 -70 -30 57 c-32 62 -46 76 -62 60 -7 -7 -3 -36 11 -88 23 -91 14 -114
-22 -58 -26 41 -41 83 -52 146 -11 71 -75 73 -75 3 0 -18 9 -52 20 -76 11 -24
20 -55 19 -69 0 -23 -1 -24 -13 -7 -8 10 -26 52 -40 93 -15 42 -40 97 -56 122
-42 68 -54 129 -47 230 8 113 40 230 84 314 23 45 33 75 30 90 -6 23 -79 78
-103 78 -26 0 -72 -51 -102 -112 -40 -83 -52 -154 -52 -318 0 -148 -8 -230
-21 -230 -5 0 -18 9 -29 20 -12 12 -25 18 -30 15 -14 -9 -12 -62 4 -115 39
-134 25 -134 -43 0 -28 54 -56 102 -61 105 -5 3 -16 -8 -25 -25 -36 -69 -50
-22 -49 155 1 164 18 292 55 420 33 113 35 138 15 154 -33 27 -124 -34 -171
-113 -66 -113 -84 -333 -45 -556 21 -122 25 -190 12 -190 -16 0 -61 95 -77
161 -22 88 -30 323 -16 434 8 63 20 108 41 149 35 68 37 86 11 86 -25 0 -88
-71 -114 -129 -18 -40 -21 -75 -28 -271 -3 -124 -7 -227 -8 -229 0 -2 -11 11
-24 30 -15 22 -33 36 -55 40 -18 4 -41 14 -51 23 -10 9 -21 16 -26 16 -4 0 -5
-49 -1 -110 4 -60 5 -110 2 -110 -11 0 -47 117 -61 197 -15 87 -29 118 -48
106 -6 -4 -7 -51 -3 -139 10 -184 -14 -190 -59 -15 -19 75 -50 141 -67 141 -7
0 -9 -25 -4 -85 7 -83 1 -101 -23 -72 -6 8 -19 47 -29 88 -25 97 -33 112 -86
149 -54 36 -60 53 -47 124 23 124 124 274 229 340 136 85 238 89 562 23 124
-26 428 -80 675 -121 393 -65 494 -81 653 -101 17 -2 32 0 32 4 0 10 -12 12
-210 47 -80 14 -203 38 -275 54 -71 16 -294 56 -495 90 -399 66 -437 73 -453
89 -11 11 -13 10 128 36 122 22 371 87 475 124 97 35 117 36 257 16z m4379
-224 c-7 -11 -234 -122 -297 -146 -62 -22 -94 -18 -94 14 0 23 12 28 185 82
191 59 215 65 206 50z m-4631 -273 c-4 -13 -14 -34 -23 -48 -23 -37 -29 -5 -7
37 21 37 40 45 30 11z m7133 -100 c-5 -15 -78 -46 -329 -143 -447 -172 -701
-269 -874 -330 l-20 -7 20 14 c60 43 686 300 1045 429 145 51 164 56 158 37z
m-78 -143 c0 -16 -496 -203 -507 -191 -8 8 94 52 257 113 214 80 250 91 250
78z m-670 -20 c0 -7 -119 -65 -242 -119 -280 -121 -714 -281 -843 -311 -73
-16 6 19 233 104 133 50 334 130 445 177 177 76 377 153 400 154 4 0 7 -2 7
-5z m700 -93 c0 -30 -101 -69 -610 -237 -834 -274 -1544 -472 -1657 -463 -30
2 0 12 137 47 538 134 1134 320 1740 541 309 113 390 136 390 112z m-3766 -63
c36 -17 43 -35 18 -44 -58 -18 -125 -185 -183 -453 -30 -138 -34 -142 -91
-108 -24 14 -67 29 -94 32 -76 10 -78 14 -70 127 16 247 77 390 189 443 44 21
63 25 127 21 41 -2 88 -10 104 -18z m573 -69 c272 -35 621 -97 686 -122 31
-12 34 -35 11 -80 -32 -62 -65 -175 -101 -348 -42 -201 -48 -345 -19 -460 18
-74 21 -130 6 -130 -20 0 -45 56 -92 212 -50 162 -81 238 -98 238 -16 0 -22
-41 -16 -109 l7 -66 -45 84 c-41 78 -59 100 -78 101 -5 0 -8 -9 -8 -20 0 -28
-9 -25 -52 17 -32 31 -38 34 -44 19 -10 -27 2 -90 46 -234 43 -143 45 -152 31
-152 -5 0 -39 73 -76 163 -72 174 -95 215 -115 202 -15 -9 -6 -73 21 -152 10
-31 19 -65 19 -76 0 -34 -27 -1 -46 56 -20 63 -60 143 -74 152 -34 21 -30 -57
10 -198 33 -118 36 -141 18 -135 -17 6 -50 89 -89 224 -37 130 -57 173 -70
153 -15 -24 -10 -120 11 -207 11 -46 20 -92 20 -103 0 -24 -22 -25 -43 -1 -15
16 -24 57 -57 269 -6 39 -18 80 -25 90 -13 17 -14 17 -19 -7 -2 -14 -7 -49
-10 -79 -10 -96 -34 -88 -62 20 -20 77 -30 99 -48 99 -30 0 -29 -12 10 -207
37 -186 30 -234 -19 -130 -84 177 -115 375 -83 520 31 140 168 382 230 407 34
14 95 11 263 -10z m-430 -25 c-3 -19 -26 -79 -50 -133 -49 -106 -94 -241 -128
-379 -12 -48 -26 -92 -30 -97 -5 -6 -9 24 -9 70 0 171 36 368 85 463 28 55 86
111 117 111 18 0 20 -4 15 -35z m3648 25 c3 -5 -7 -16 -22 -23 -115 -59 -1339
-430 -1883 -571 -165 -43 -383 -86 -436 -86 -13 0 -24 4 -24 9 0 11 107 41
144 41 119 0 1040 267 1796 519 179 60 334 111 345 114 36 8 74 7 80 -3z m30
-120 c10 -16 -41 -35 -270 -103 -121 -35 -373 -112 -560 -170 -683 -212 -1411
-393 -1541 -385 -45 3 -38 6 91 36 676 162 967 242 1715 472 548 169 553 170
565 150z m-2069 -49 c-8 -13 -94 -41 -125 -41 -18 0 -22 3 -14 11 26 26 153
53 139 30z m132 -53 c-5 -15 -50 -39 -58 -32 -5 6 40 43 53 44 5 0 7 -6 5 -12z
m-5241 -115 c-12 -11 -38 9 -74 56 -52 67 -39 71 24 9 31 -32 54 -61 50 -65z
m7168 73 c0 -15 -17 -23 -95 -42 -53 -12 -179 -47 -280 -78 -676 -202 -1734
-473 -1959 -502 -101 -13 -45 14 97 46 522 120 1161 293 1732 470 430 133 505
149 505 106z m-5680 -79 c44 -22 65 -50 65 -89 0 -21 -4 -38 -10 -38 -5 0 -10
10 -10 23 0 54 -53 85 -90 52 -16 -14 -18 -13 -30 14 -23 58 6 72 75 38z
m3400 14 c-15 -13 -75 -31 -103 -31 -32 0 -24 8 25 25 43 16 92 20 78 6z
m2286 -44 c-11 -11 -132 -36 -171 -36 -21 0 -18 3 15 16 92 36 184 48 156 20z
m29 -82 c0 -14 -501 -150 -525 -141 -13 4 183 66 352 111 121 32 173 41 173
30z m1271 -46 c43 -46 70 -144 76 -275 6 -128 -6 -217 -44 -311 -34 -84 -51
-93 -126 -61 -95 40 -145 82 -174 144 -24 52 -25 64 -21 163 4 82 12 127 36
201 35 105 63 142 122 158 67 19 100 15 131 -19z m-2203 -119 c-44 -26 -940
-271 -1153 -315 -104 -22 -217 -33 -204 -21 9 8 1333 345 1359 345 12 0 12 -2
-2 -9z m272 -20 c0 -5 -15 -10 -32 -10 -25 0 -29 3 -18 10 20 13 50 13 50 0z
m-4088 -55 c6 -14 8 -28 5 -32 -8 -8 -36 26 -37 45 0 21 20 13 32 -13z m-1582
-85 c-12 -22 -40 -28 -40 -7 0 6 10 28 22 47 l23 35 3 -27 c2 -15 -2 -36 -8
-48z m381 60 c73 -6 193 -19 264 -29 72 -11 191 -25 265 -30 139 -11 307 -44
395 -78 28 -11 118 -58 200 -105 83 -47 287 -159 455 -248 381 -203 470 -252
470 -261 0 -4 -24 -20 -52 -37 -98 -55 -238 -220 -332 -392 -26 -47 -54 -92
-62 -100 -13 -13 -17 -12 -33 8 -21 29 -28 22 -70 -69 l-30 -64 0 56 c-2 101
-52 229 -91 229 -20 0 -40 -50 -40 -100 0 -42 -20 -100 -34 -100 -17 0 -26 31
-26 90 -1 25 -6 58 -13 74 -11 24 -14 26 -25 14 -6 -8 -16 -43 -20 -76 -5 -34
-12 -65 -16 -69 -13 -13 -33 25 -41 75 -10 64 -31 101 -58 102 -4 0 -14 -14
-21 -32 l-14 -31 -7 44 c-8 48 -40 108 -58 111 -7 0 -19 1 -27 2 -9 1 -20 20
-28 46 -27 91 -26 90 -85 90 -67 0 -83 -16 -89 -88 -3 -29 -8 -56 -12 -59 -11
-12 -26 19 -26 54 0 77 -42 109 -76 58 -23 -35 -32 -31 -44 18 -27 103 -50
123 -75 65 l-14 -33 -1 57 c0 117 -35 139 -82 53 l-28 -50 0 70 c0 133 -55
183 -126 114 -19 -18 -35 -31 -37 -28 -2 2 -11 16 -20 32 -10 15 -26 27 -36
27 -31 0 -77 46 -141 139 -65 96 -90 114 -141 109 -33 -3 -34 -2 -31 30 3 26
-3 38 -27 61 -29 27 -30 29 -24 103 5 71 4 76 -15 82 -23 8 -39 43 -25 56 7 8
35 16 59 19 5 0 71 -4 145 -9z m5004 0 c-7 -11 -158 -60 -183 -60 -25 1 31 30
98 51 63 20 94 23 85 9z m-245 -75 c0 -11 -304 -97 -492 -139 -118 -26 175 74
344 118 87 23 148 32 148 21z m-2850 -98 c19 -33 6 -45 -28 -26 -20 10 -28 24
-30 49 -3 33 -3 33 20 18 13 -8 30 -27 38 -41z m-2761 7 c39 -20 121 -75 183
-122 141 -107 413 -286 718 -472 290 -177 374 -232 767 -502 319 -219 519
-366 510 -375 -8 -7 -623 -88 -862 -113 -296 -32 -362 -30 -460 8 -44 17 -154
73 -245 123 -91 50 -228 123 -305 162 -233 116 -353 185 -495 282 -168 115
-324 205 -600 345 -119 61 -230 122 -249 137 -30 26 -32 30 -21 58 17 43 26
260 11 269 -17 11 -117 -13 -132 -30 -10 -13 -5 -29 29 -95 49 -94 46 -107
-23 -138 -25 -11 -45 -25 -45 -31 0 -17 82 -65 325 -187 310 -156 446 -233
665 -378 215 -142 285 -183 510 -295 186 -93 379 -201 488 -271 46 -30 89 -50
117 -55 56 -8 214 7 590 57 640 85 728 92 826 63 50 -15 258 -131 259 -145 0
-11 -140 -29 -345 -44 -359 -27 -1156 -67 -1355 -68 l-195 -2 -50 37 c-27 20
-134 82 -238 137 -103 56 -312 178 -465 273 -426 264 -865 528 -1097 661 -221
126 -906 535 -940 561 -31 23 -9 35 81 46 207 25 746 56 1194 70 339 10 526
26 625 54 90 25 144 20 224 -20z m531 6 c0 -16 -4 -30 -10 -30 -5 0 -10 14
-10 30 0 17 5 30 10 30 6 0 10 -13 10 -30z m-110 -25 c0 -14 -4 -25 -10 -25
-5 0 -10 11 -10 25 0 14 5 25 10 25 6 0 10 -11 10 -25z m3832 -68 c37 -58 109
-209 103 -216 -12 -11 -69 59 -101 124 -56 116 -58 181 -2 92z m-1925 -31
c266 -77 499 -159 631 -222 207 -98 733 -392 869 -486 85 -59 36 -63 463 42
809 199 1005 230 1600 250 464 15 675 29 704 48 23 14 -48 20 -254 22 l-215 3
105 13 c160 21 524 29 615 15 126 -21 345 -101 345 -127 0 -23 -81 -36 -610
-99 -642 -76 -999 -122 -1585 -206 -308 -44 -654 -89 -770 -99 -249 -24 -426
-46 -475 -60 -124 -35 -238 -178 -319 -399 -40 -110 -55 -131 -89 -131 -40 0
-60 19 -75 69 -7 25 -18 46 -24 48 -17 6 -33 -61 -34 -147 -1 -41 -4 -86 -8
-99 l-6 -24 -14 29 c-9 18 -15 71 -17 142 -3 130 -20 181 -67 197 -33 11 -47
-3 -47 -50 0 -35 -26 -78 -42 -69 -6 4 -7 27 -3 60 6 47 4 54 -14 64 -17 8
-21 20 -21 59 0 55 31 157 66 218 35 60 131 142 220 187 l77 40 41 -23 c154
-85 268 -140 281 -135 22 9 18 32 -10 59 -26 23 -336 195 -353 195 -5 0 -22
-16 -36 -35 -17 -22 -40 -38 -65 -45 -79 -21 -218 -157 -271 -265 -92 -188
-91 -409 4 -557 46 -71 49 -88 18 -88 -40 1 -64 29 -110 126 l-47 99 1 115 c1
138 29 243 101 382 55 108 116 177 206 235 87 55 88 78 6 78 -45 0 -66 -7
-113 -35 -86 -52 -172 -126 -205 -177 -61 -92 -132 -316 -146 -458 -3 -38 -11
-82 -17 -97 -25 -68 -70 -23 -76 78 -9 130 55 307 171 482 81 122 166 204 251
242 36 16 68 35 72 41 4 8 -4 21 -21 35 -63 50 -529 311 -767 430 -130 65
-158 84 -123 84 8 0 99 -24 202 -54z m2662 50 c-18 -19 -435 -117 -488 -115
l-26 1 30 13 c37 17 169 48 335 80 130 24 156 28 149 21z m-1099 -65 c5 -11
10 -28 10 -38 -1 -16 -3 -15 -20 6 -21 25 -26 51 -10 51 5 0 14 -9 20 -19z
m3790 -107 c21 -71 26 -124 10 -124 -10 0 -35 79 -45 148 -10 66 11 51 35 -24z
m-91 -67 c10 -53 35 -95 109 -182 56 -65 63 -85 31 -85 -30 0 -140 115 -172
179 -29 60 -33 96 -15 136 9 21 14 23 25 13 7 -8 17 -35 22 -61z m248 -54 c91
-149 121 -240 36 -110 -42 65 -67 110 -83 152 -18 46 5 26 47 -42z m-7007 27
c0 -10 -4 -22 -10 -25 -6 -4 -10 7 -10 25 0 18 4 29 10 25 6 -3 10 -15 10 -25z
m7180 -25 c6 -8 9 -19 5 -25 -7 -11 -24 -4 -60 24 -19 15 -19 15 11 16 17 0
37 -7 44 -15z m-4631 -51 c276 -64 757 -208 861 -258 51 -24 63 -50 28 -60
-104 -29 -298 -67 -321 -62 -16 3 -79 35 -140 70 -62 35 -191 105 -287 156
-184 97 -330 179 -330 186 0 9 42 2 189 -32z m3664 -311 c-13 -2 -33 -2 -45 0
-13 2 -3 4 22 4 25 0 35 -2 23 -4z m-168 -23 c4 -6 -13 -10 -45 -10 -32 0 -49
4 -45 10 3 6 24 10 45 10 21 0 42 -4 45 -10z m-5155 -86 c0 -13 -4 -24 -10
-24 -5 0 -10 14 -10 31 0 17 4 28 10 24 6 -3 10 -17 10 -31z m5268 11 c-11
-12 -736 -108 -1128 -149 -80 -9 -163 -18 -185 -21 -26 -3 -35 -2 -25 4 8 5
85 20 170 34 300 50 474 72 845 107 121 12 225 23 230 25 16 6 99 6 93 0z
m-24 -115 c-31 -31 -530 -99 -1329 -180 -324 -33 -617 -65 -649 -70 -33 -5
-62 -8 -64 -6 -21 22 165 49 748 111 423 45 988 113 1150 139 109 17 157 19
144 6z m1454 -33 c4 -20 -25 -34 -40 -19 -15 15 -1 44 19 40 10 -2 19 -11 21
-21z m-2878 -26 c0 -16 -149 -38 -660 -101 -653 -79 -972 -111 -991 -99 -22
14 192 45 891 129 635 76 760 88 760 71z m-6415 -141 c13 -22 -23 -8 -55 20
l-35 31 42 -20 c23 -12 44 -25 48 -31z m9230 -7 c88 -304 155 -473 218 -542
41 -46 57 -119 57 -257 -1 -125 -33 -297 -64 -339 -12 -16 -16 -17 -30 -6 -8
7 -14 18 -13 23 4 21 -22 18 -43 -4 -12 -13 -48 -70 -81 -128 -110 -191 -128
-199 -68 -29 88 249 97 274 93 278 -2 3 -18 -6 -35 -18 -17 -13 -33 -21 -36
-18 -2 3 1 22 7 44 7 21 14 134 17 251 6 220 11 241 46 190 8 -13 18 -20 22
-16 11 11 -22 177 -66 323 -72 243 -83 305 -55 305 10 0 21 -22 31 -57z
m-1752 30 c-13 -2 -35 -2 -50 0 -16 2 -5 4 22 4 28 0 40 -2 28 -4z m-163 -23
c0 -5 -8 -10 -17 -10 -10 0 -97 -9 -193 -20 -292 -33 -729 -67 -719 -56 10 10
773 92 887 95 23 1 42 -3 42 -9z m-7122 -112 c70 -41 94 -66 50 -53 -31 9
-178 97 -178 107 0 11 47 -8 128 -54z m5542 -18 c11 -7 1 -10 -35 -10 -36 0
-46 3 -35 10 8 5 24 10 35 10 11 0 27 -5 35 -10z m-287 -27 c-24 -2 -62 -2
-85 0 -24 2 -5 4 42 4 47 0 66 -2 43 -4z m2364 -7 c4 -3 2 -10 -3 -15 -22 -22
-1266 -130 -2469 -216 -640 -45 -735 -55 -756 -81 -18 -22 12 -27 132 -22 61
3 108 4 106 2 -2 -3 -39 -11 -81 -19 -98 -19 -216 -20 -217 -2 -6 64 35 219
68 258 19 22 33 29 61 29 l37 0 -32 -20 c-35 -21 -43 -47 -18 -56 8 -3 65 1
127 10 256 36 957 82 937 62 -6 -7 -251 -31 -604 -61 -399 -33 -505 -51 -505
-86 0 -15 287 -7 590 16 113 8 529 40 925 70 765 59 913 71 1285 110 129 13
255 26 280 28 56 5 129 1 137 -7z m-2619 -23 c-16 -2 -40 -2 -55 0 -16 2 -3 4
27 4 30 0 43 -2 28 -4z m1182 -4 c-117 -23 -608 -39 -550 -18 43 15 208 26
405 27 137 0 177 -3 145 -9z m-1395 -19 c4 -6 -8 -10 -29 -10 -20 0 -36 5 -36
10 0 6 13 10 29 10 17 0 33 -4 36 -10z m4099 -66 c68 -148 100 -336 94 -544
-4 -129 -6 -141 -50 -270 -53 -157 -123 -311 -162 -357 -52 -62 -144 -67 -229
-13 -25 16 -64 34 -86 40 -83 22 -198 -27 -285 -121 -92 -99 -124 -197 -133
-409 -9 -213 16 -281 151 -416 92 -91 175 -149 315 -220 131 -66 194 -119 210
-179 6 -22 11 -106 11 -187 l0 -148 35 0 c74 0 27 -59 -71 -90 -91 -28 -199
-40 -353 -40 -436 0 -752 164 -939 488 -166 286 -158 276 -194 267 -15 -4 -45
-23 -68 -42 -22 -19 -44 -32 -47 -29 -15 14 565 577 929 903 17 15 29 38 33
61 9 61 69 170 172 313 226 314 452 677 564 907 39 78 72 142 74 142 2 0 15
-25 29 -56z m-9773 26 c10 -6 19 -15 19 -21 0 -13 -40 -2 -60 17 -12 12 -12
14 4 14 9 0 26 -5 37 -10z m8535 -53 c11 -11 2 -16 -52 -26 -85 -16 -265 -30
-724 -55 -621 -35 -726 -39 -719 -32 5 5 902 90 1219 115 130 10 265 10 276
-2z m-7186 -79 c173 -90 317 -178 372 -227 27 -24 47 -45 45 -48 -7 -7 -543
312 -572 340 -21 20 43 -7 155 -65z m-1676 -4 c103 -41 508 -241 678 -335 158
-87 332 -193 543 -329 99 -64 218 -137 265 -162 47 -25 213 -121 370 -213 373
-219 488 -282 645 -354 146 -66 206 -87 230 -78 14 6 14 9 0 36 -20 40 -19 54
5 76 11 10 20 24 20 31 0 18 -50 54 -137 99 -77 39 -100 65 -35 39 82 -34 174
-88 197 -116 18 -21 25 -42 25 -70 0 -77 -102 -228 -154 -228 -13 0 -46 16
-72 35 -141 100 -391 246 -1044 607 -1093 605 -1500 821 -1752 933 -48 22 -86
40 -84 42 8 8 96 21 150 22 46 1 79 -7 150 -35z m1201 -243 c44 -25 262 -156
485 -291 223 -136 452 -274 510 -307 278 -160 546 -293 591 -293 62 0 -30 65
-337 238 -260 146 -318 181 -311 188 7 7 117 -49 377 -193 340 -189 355 -202
333 -269 -14 -41 -35 -51 -80 -35 -42 15 -732 410 -998 571 -458 278 -756 475
-669 444 10 -4 55 -28 99 -53z m186 7 c22 -12 39 -28 39 -35 0 -9 -15 -3 -45
17 -65 45 -61 56 6 18z m3316 -103 c70 -47 160 -101 198 -120 89 -44 210 -75
294 -75 55 0 68 3 79 20 17 28 98 28 145 0 23 -14 64 -22 137 -29 83 -7 106
-12 117 -27 10 -14 26 -19 56 -18 56 1 87 19 87 48 0 23 3 24 103 31 56 3 219
15 362 26 399 29 934 23 969 -12 18 -17 -6 -24 -100 -27 -87 -4 -94 -6 -99
-25 -2 -12 -14 -71 -25 -132 -27 -141 -48 -215 -61 -215 -6 0 -9 70 -7 198 3
165 1 197 -11 197 -17 0 -33 -49 -55 -167 -28 -151 -55 -191 -35 -54 5 43 7
81 4 84 -12 12 -388 7 -417 -5 -40 -18 -56 -49 -78 -154 -23 -107 -46 -167
-60 -153 -6 6 0 58 16 137 27 129 27 157 0 157 -20 0 -45 -51 -81 -160 -27
-83 -63 -165 -70 -158 -2 1 5 41 16 88 26 119 25 175 -3 194 -12 9 -31 16 -40
16 -10 0 -79 -30 -153 -66 -146 -71 -172 -94 -210 -181 -28 -62 -47 -71 -34
-15 5 20 12 52 16 71 l6 34 -66 -5 c-104 -6 -114 -21 -197 -285 -39 -124 -69
-189 -70 -153 0 8 16 76 35 150 39 153 46 244 18 238 -10 -2 -27 -22 -38 -45
-11 -24 -22 -43 -26 -43 -4 0 -17 27 -29 59 -38 101 -61 110 -209 82 -120 -24
-166 -44 -189 -86 -48 -87 -77 -127 -103 -140 -39 -21 -44 -19 -86 19 -47 41
-75 56 -106 56 -34 0 -42 -13 -60 -112 -18 -94 -52 -183 -66 -174 -9 6 -2 50
18 124 12 44 7 97 -9 107 -5 3 -21 -12 -35 -35 -26 -42 -54 -53 -57 -22 0 9 0
42 1 73 3 51 1 57 -20 62 -50 13 -119 -26 -119 -68 0 -6 -15 -29 -34 -51 -42
-50 -76 -117 -112 -224 -15 -47 -29 -78 -31 -70 -2 8 8 77 20 153 20 115 22
137 10 137 -8 0 -74 -12 -145 -26 l-131 -26 -16 21 c-9 11 -25 21 -36 22 -50
5 -64 -2 -81 -36 -20 -43 -81 -95 -110 -95 -48 0 -61 53 -73 315 -14 291 -38
362 -165 506 l-75 84 42 6 c23 3 152 9 287 13 135 5 355 16 490 26 135 9 275
18 312 19 l67 1 128 -85z m-2494 19 c151 -76 587 -335 587 -349 0 -23 -510
260 -629 349 -45 33 -25 33 42 0z m1127 -28 c0 -7 -7 -20 -16 -27 -14 -11 -18
-10 -30 5 -7 11 -11 23 -8 27 9 15 54 10 54 -5z m-151 -47 c78 -52 135 -127
169 -221 23 -66 26 -91 30 -251 5 -211 -2 -248 -63 -315 -37 -41 -44 -45 -59
-33 -26 21 -102 9 -135 -23 -15 -14 -41 -61 -59 -104 -17 -43 -38 -87 -47 -97
-14 -19 -14 -19 -15 -1 0 10 7 46 16 80 14 52 14 76 5 161 -6 55 -16 170 -21
255 -14 238 -47 330 -171 485 -38 47 -69 88 -69 90 0 6 84 11 226 13 l132 2
61 -41z m-511 -55 c29 -20 28 -34 -3 -34 -24 0 -51 31 -38 44 9 9 16 8 41 -10z
m6254 -55 c45 -7 87 -15 91 -19 16 -14 -73 -158 -147 -238 -29 -31 -42 -39
-48 -30 -4 7 -8 80 -8 162 0 123 2 147 14 143 8 -3 52 -11 98 -18z m-1521 -10
c25 -25 20 -43 -14 -47 -32 -4 -56 31 -36 54 16 19 25 18 50 -7z m341 -65 c11
-36 1 -168 -18 -253 -13 -59 -54 -149 -89 -195 -27 -36 -27 -9 0 56 79 189 78
185 76 311 -1 89 2 118 11 115 6 -2 16 -18 20 -34z m-4244 -174 c6 -101 -9
-81 -29 38 -9 53 -19 108 -22 122 -4 14 5 0 20 -30 19 -39 28 -76 31 -130z
m4501 109 c14 -41 14 -190 0 -262 -6 -30 -26 -82 -44 -114 -49 -90 -82 -80
-55 17 5 19 18 103 29 185 26 200 45 246 70 174z m-5314 -71 c147 -79 172 -95
161 -105 -10 -10 -149 62 -256 132 -111 73 -68 61 95 -27z m5817 -2 c151 -49
155 -52 140 -104 -7 -22 -21 -61 -33 -86 l-20 -47 -37 31 c-123 103 -146 102
-148 -5 -2 -68 -11 -85 -44 -85 -42 0 -44 15 -10 108 37 105 35 132 -11 153
-39 17 -55 40 -45 64 9 25 64 17 208 -29z m-1385 -40 c-3 -35 -13 -79 -22 -97
l-15 -34 5 60 c5 64 22 135 32 135 3 0 3 -29 0 -64z m368 -55 c-37 -72 -49 -5
-13 69 l22 45 4 -42 c2 -25 -3 -54 -13 -72z m-248 15 c-3 -30 -11 -65 -19 -78
-13 -23 -13 -23 -16 11 -4 41 16 121 31 121 6 0 8 -21 4 -54z m108 -90 c-31
-127 -117 -277 -154 -265 -5 2 16 56 48 119 33 63 72 156 87 205 27 85 29 88
32 51 2 -22 -4 -71 -13 -110z m-5479 110 c10 -8 16 -18 12 -22 -10 -9 -58 12
-58 26 0 14 23 12 46 -4z m4044 -81 c0 -12 -100 -275 -125 -330 -38 -82 -43
-49 -10 62 53 176 95 273 120 273 8 0 15 -2 15 -5z m-2385 -102 c-4 -16 -12
-23 -23 -21 -25 5 -25 29 0 68 l23 35 3 -29 c2 -15 1 -39 -3 -53z m4286 10
c-7 -26 -24 -69 -38 -94 -37 -69 -103 -97 -74 -32 16 38 114 183 119 178 3 -2
-1 -26 -7 -52z m-2640 -158 c-16 -78 -41 -166 -57 -200 l-28 -60 -3 35 c-6 59
107 437 114 385 2 -11 -10 -83 -26 -160z m1894 123 c-10 -49 -73 -175 -90
-182 -19 -7 -19 -8 10 70 44 118 96 190 80 112z m-140 -30 c-17 -85 -48 -158
-77 -183 -16 -14 -34 -23 -39 -20 -12 8 102 235 118 235 2 0 2 -15 -2 -32z
m476 -31 c-11 -18 -32 -44 -47 -57 l-27 -25 18 35 c26 52 68 105 73 92 2 -7
-5 -27 -17 -45z m-3901 -107 c-14 -149 -59 -290 -90 -290 -16 0 -12 35 10 86
12 26 28 91 36 143 29 180 35 206 46 187 6 -11 5 -56 -2 -126z m2770 105 c-22
-57 -119 -220 -126 -212 -12 11 109 237 127 237 5 0 4 -11 -1 -25z m320 -39
c-36 -94 -110 -190 -110 -141 0 28 116 212 127 202 2 -3 -6 -30 -17 -61z m195
6 c-8 -25 -27 -64 -42 -86 -57 -81 -73 -45 -22 50 54 103 90 123 64 36z
m-4711 27 c15 -12 25 -23 22 -26 -7 -7 -66 26 -66 37 0 16 15 12 44 -11z
m8316 11 c0 -56 -182 -291 -207 -267 -11 12 98 184 155 245 30 32 52 41 52 22z
m-300 -19 c0 -5 -9 -30 -20 -56 -24 -56 -25 -90 -5 -138 21 -51 19 -74 -11
-102 -29 -27 -133 -65 -177 -65 -38 0 -62 14 -129 75 -69 64 -130 95 -188 95
-37 0 -48 -5 -80 -40 -44 -47 -68 -54 -46 -12 15 28 118 132 170 170 16 12 37
22 47 22 10 0 46 -22 80 -50 93 -74 124 -69 264 45 79 64 95 74 95 56z m-4395
-78 c-4 -26 -15 -75 -26 -109 -19 -60 -33 -83 -46 -70 -6 5 28 142 49 199 17
44 31 32 23 -20z m640 -20 c-40 -79 -58 -103 -74 -103 -13 0 17 63 61 128 44
65 52 50 13 -25z m-4056 -7 c178 -90 310 -169 288 -174 -18 -4 -161 69 -310
157 -166 99 -157 106 22 17z m3805 -26 c-20 -38 -40 -70 -45 -70 -12 0 18 74
49 125 40 64 37 23 -4 -55z m-808 40 c-7 -42 -53 -168 -67 -185 -23 -24 14
154 42 206 18 34 32 22 25 -21z m719 -11 c-18 -33 -21 -35 -28 -15 -7 17 21
58 34 51 5 -4 2 -19 -6 -36z m-1496 -11 c-1 -37 -83 -271 -96 -276 -23 -7 -26
29 -8 106 29 125 62 190 98 192 4 0 7 -10 6 -22z m866 -25 c-8 -44 -51 -133
-65 -133 -10 0 6 57 35 128 21 53 40 56 30 5z m-335 13 c0 -21 -44 -136 -55
-146 -13 -11 -15 -8 -15 16 0 34 45 134 60 134 5 0 10 -2 10 -4z m-694 -38
c-3 -13 -10 -47 -16 -76 -13 -70 -50 -154 -64 -149 -14 5 -15 0 29 135 20 61
40 112 46 112 5 0 7 -10 5 -22z m1215 -50 c-5 -15 -15 -29 -20 -33 -14 -8 -14
30 0 57 16 29 33 9 20 -24z m-2385 -50 c-19 -61 -58 -136 -63 -121 -8 24 60
183 73 170 2 -1 -3 -24 -10 -49z m5168 12 c6 -6 -7 -27 -30 -52 -43 -47 -208
-199 -229 -211 -8 -4 -58 19 -133 62 -126 74 -240 128 -334 157 -32 10 -58 21
-58 24 0 4 114 12 253 19 138 7 266 14 282 16 51 5 240 -6 249 -15z m-4569
-52 c-9 -55 -41 -128 -55 -128 -14 0 -6 42 22 118 24 64 43 69 33 10z m122
-15 c-6 -67 -24 -113 -45 -113 -16 0 -12 42 14 123 22 66 38 61 31 -10z m669
1 c-4 -13 -15 -28 -26 -34 -28 -15 -27 14 2 60 18 28 23 31 26 17 2 -10 1 -29
-2 -43z m101 -1 c-4 -17 -4 -17 -12 0 -4 9 -4 25 0 35 8 16 8 16 12 0 3 -10 3
-26 0 -35z m2763 -28 c122 -17 168 -29 195 -51 19 -14 17 -15 -30 -10 -27 3
-97 12 -155 21 -58 9 -132 15 -165 12 -65 -5 -151 -35 -138 -48 4 -4 53 -13
108 -19 128 -15 206 -33 303 -69 42 -16 101 -37 131 -46 56 -17 181 -90 181
-106 0 -14 -41 -1 -177 58 -245 106 -542 160 -675 122 -68 -18 -42 -39 50 -39
104 0 334 -46 557 -112 91 -27 198 -75 191 -87 -7 -11 -62 0 -221 45 -67 18
-163 40 -215 49 -119 20 -400 32 -400 18 0 -6 9 -13 20 -16 35 -9 22 -26 -52
-63 -101 -51 -174 -102 -261 -183 -130 -120 -146 -115 -72 22 50 93 55 112 25
104 -27 -7 -31 3 -20 44 17 59 -5 56 -76 -12 l-67 -64 26 50 c86 172 224 281
432 344 168 50 322 61 505 36z m440 -227 c0 -16 -99 31 -120 57 -9 10 11 4 53
-16 37 -18 67 -37 67 -41z m1711 -43 c76 -65 155 -110 300 -170 155 -63 265
-130 345 -209 53 -53 64 -71 87 -141 40 -122 53 -206 39 -254 -13 -42 -81
-139 -108 -154 -35 -20 -32 7 21 152 24 66 26 79 16 113 -7 21 -16 38 -21 38
-10 0 -12 -7 -30 -95 -24 -117 -53 -137 -58 -40 -2 33 -8 65 -14 72 -6 7 -30
13 -54 13 -30 0 -49 6 -59 18 -8 9 -32 37 -52 60 -47 56 -131 115 -258 182
-216 115 -344 226 -368 319 -6 26 7 71 23 71 5 0 41 -29 79 -65 61 -58 91 -77
91 -59 0 4 -23 49 -51 101 -56 104 -59 134 -10 109 15 -8 53 -36 82 -61z
m-2204 -125 c143 -37 223 -73 223 -99 0 -33 -150 -119 -415 -236 -153 -68
-529 -215 -549 -215 -42 0 -19 159 39 277 46 94 95 135 247 212 221 111 251
115 455 61z m301 -2 c15 -15 16 -38 0 -38 -14 0 -48 30 -48 42 0 12 34 10 48
-4z m-1362 -145 c-3 -10 -17 -94 -31 -188 -28 -190 -32 -208 -46 -200 -25 16
10 270 51 363 19 41 37 59 26 25z m2049 -289 c9 -14 14 -29 10 -32 -7 -7 -45
34 -45 49 0 17 18 9 35 -17z m-1949 -192 c-15 -28 -70 -61 -83 -49 -3 4 16 43
43 88 l49 81 3 -45 c2 -27 -3 -58 -12 -75z m2030 63 c19 -28 12 -44 -10 -26
-17 14 -28 51 -15 51 5 0 16 -11 25 -25z m-108 -136 c90 -112 124 -149 132
-144 5 3 5 19 0 35 -11 38 -2 38 45 0 21 -16 41 -30 45 -30 4 0 -3 29 -16 65
-13 36 -20 65 -16 65 5 0 46 -34 91 -75 163 -147 292 -214 535 -279 139 -37
194 -58 208 -80 5 -8 90 -10 285 -9 373 3 337 -13 -69 -31 -299 -13 -348 -18
-348 -36 0 -17 104 -21 331 -15 240 8 391 0 320 -16 -19 -4 -171 -10 -338 -14
-167 -4 -319 -11 -336 -15 l-32 -7 40 -11 c22 -6 86 -14 142 -18 56 -4 100
-11 97 -15 -7 -12 -219 -11 -412 1 -116 7 -163 14 -198 30 -161 71 -406 323
-511 526 -78 149 -76 175 5 73z m-4701 -40 c52 -32 183 -47 521 -59 369 -12
461 -19 437 -33 -24 -13 -879 -2 -970 12 -88 14 -160 38 -176 58 -37 44 122
62 188 22z m1978 -148 c31 -5 36 -9 20 -14 -99 -31 -436 -44 -507 -19 -41 15
-48 28 -20 35 29 8 464 6 507 -2z m-917 -48 c-54 -2 -142 -2 -195 0 -54 1 -10
3 97 3 107 0 151 -2 98 -3z m2212 -138 c18 -22 5 -74 -27 -107 -30 -31 -54
-35 -77 -13 -21 21 -61 35 -102 35 -65 0 -44 17 91 71 81 33 98 35 115 14z
m-195 -211 c-41 -31 -197 -59 -415 -76 -154 -11 -241 -6 -193 13 62 23 435 77
543 78 77 0 83 -1 65 -15z m2775 -124 c0 -5 -13 -10 -29 -10 -17 0 -33 5 -36
10 -4 6 8 10 29 10 20 0 36 -4 36 -10z"/>
<path d="M5670 7902 c-14 -2 -86 -21 -160 -42 -74 -21 -220 -57 -325 -80 -351
-77 -500 -112 -517 -121 -31 -17 -18 -87 21 -116 18 -13 12 -12 259 -59 101
-19 308 -62 460 -95 359 -79 489 -102 510 -90 14 8 11 12 -20 25 -87 37 -642
166 -878 206 -138 22 -199 41 -224 69 -30 34 -18 38 289 101 344 71 608 144
627 173 16 25 2 36 -42 29z"/>
<path d="M7581 7040 c-8 -4 -11 -15 -8 -24 7 -17 34 -21 55 -7 11 6 11 10 0
18 -25 19 -34 22 -47 13z"/>
<path d="M4081 7064 c-30 -38 -37 -72 -18 -91 35 -36 104 27 96 87 -6 37 -50
39 -78 4z"/>
<path d="M4297 7013 c-13 -12 -7 -90 7 -102 33 -27 65 66 34 97 -13 13 -31 16
-41 5z"/>
<path d="M5280 6805 c-21 -26 -25 -111 -6 -140 34 -52 66 -20 66 65 0 79 -28
113 -60 75z"/>
<path d="M6595 6537 c-16 -25 -35 -81 -35 -104 0 -29 39 -53 86 -53 84 0 106
31 57 82 -15 16 -32 43 -38 61 -13 41 -47 48 -70 14z"/>
<path d="M6812 6522 c-32 -44 -45 -107 -30 -140 18 -38 49 -35 67 6 27 61 96
51 131 -19 16 -30 25 -38 33 -30 8 8 6 20 -5 45 -23 47 -136 166 -158 166 -10
0 -27 -12 -38 -28z"/>
<path d="M7180 6313 c-32 -26 -32 -27 -10 -35 30 -11 60 7 60 37 0 32 -11 31
-50 -2z"/>
<path d="M3940 6486 c0 -23 47 -35 295 -71 311 -46 428 -66 703 -121 267 -53
412 -76 657 -104 99 -11 262 -32 362 -46 187 -26 234 -28 240 -8 7 22 -253 70
-647 119 -245 31 -476 69 -820 135 -140 27 -295 56 -345 64 -271 47 -445 59
-445 32z"/>
<path d="M4689 6221 c19 -17 36 -21 90 -20 l66 1 -35 15 c-19 8 -59 17 -90 20
l-55 4 24 -20z"/>
<path d="M4345 5557 c-27 -21 -9 -37 39 -37 48 0 74 18 54 38 -16 16 -70 15
-93 -1z"/>
<path d="M6370 4392 c0 -34 23 -68 38 -58 17 10 15 38 -4 64 -21 30 -34 28
-34 -6z"/>
<path d="M3075 4716 c-20 -14 -20 -15 6 -24 45 -18 229 -43 384 -54 147 -10
749 3 763 16 21 21 -36 29 -265 37 -136 5 -347 14 -468 20 -409 22 -398 22
-420 5z"/>
<path d="M5492 2408 c-15 -15 -16 -53 -1 -79 22 -43 52 25 33 75 -7 19 -16 20
-32 4z"/>
<path d="M5386 2364 c-4 -10 -1 -24 7 -31 19 -19 49 -5 45 21 -4 27 -43 34
-52 10z"/>
<path d="M10940 11066 c0 -17 53 -63 97 -84 67 -32 47 12 -31 69 -43 32 -66
37 -66 15z"/>
<path d="M9276 10471 c-4 -7 -2 -18 4 -26 29 -35 217 -105 283 -105 13 0 31 7
38 16 11 14 10 19 -13 39 -56 48 -294 106 -312 76z"/>
<path d="M3030 10273 c-109 -7 -447 -44 -535 -59 -114 -19 -256 -61 -465 -137
-281 -101 -326 -128 -300 -177 13 -24 36 -37 100 -56 103 -30 92 -65 -36 -109
-210 -74 -453 -228 -442 -282 3 -15 13 -18 63 -17 61 1 70 4 340 104 328 121
1030 316 1225 340 82 10 105 9 170 -6 41 -9 89 -17 105 -18 29 -1 30 1 36 48
7 63 37 88 139 116 140 37 291 53 451 47 140 -6 169 -2 169 24 0 17 -33 39
-58 39 -15 0 -65 14 -112 31 -208 75 -253 89 -352 103 -98 15 -335 19 -498 9z
m356 -72 c-9 -10 -44 -33 -76 -50 -32 -17 -100 -62 -152 -100 -117 -86 -137
-96 -223 -110 -190 -33 -564 -138 -1048 -297 -192 -63 -351 -114 -353 -114 -2
0 -4 4 -4 9 0 13 143 85 247 125 119 45 189 81 197 101 20 53 -14 99 -96 129
-27 10 -48 22 -48 27 0 41 603 219 875 260 133 19 245 25 245 12 0 -5 -24 -20
-53 -35 -92 -49 -262 -206 -243 -225 6 -6 64 28 161 97 85 60 277 158 325 166
l35 6 -41 -39 c-22 -21 -73 -66 -112 -101 -66 -58 -85 -82 -64 -82 5 0 64 36
133 80 186 121 346 197 295 141z m265 -23 c49 -12 89 -25 89 -28 0 -3 -54 -13
-120 -23 -187 -27 -288 -65 -409 -152 -23 -17 -47 -25 -75 -25 l-41 1 27 24
c64 55 380 225 421 225 11 0 60 -10 108 -22z"/>
<path d="M10200 10161 c0 -41 520 -551 561 -551 25 0 -5 38 -146 186 -219 230
-415 402 -415 365z"/>
<path d="M10433 10153 c-23 -8 -14 -30 25 -58 44 -33 108 -99 330 -340 221
-241 333 -357 339 -351 8 7 -58 104 -147 216 -252 318 -493 552 -547 533z"/>
<path d="M1223 6938 c-31 -39 -58 -235 -83 -608 -11 -169 -12 -546 -1 -575 11
-29 19 51 31 330 18 409 45 702 75 803 14 44 12 62 -4 62 -5 0 -13 -6 -18 -12z"/>
<path d="M857 6393 c-9 -109 -54 -197 -153 -302 -112 -119 -257 -221 -314
-221 -28 0 -25 29 5 40 21 8 25 16 25 49 0 61 -9 64 -182 56 l-153 -6 51 48
c28 26 106 81 173 122 151 91 406 221 432 221 47 0 79 40 43 54 -37 14 -194
-42 -384 -140 -350 -178 -513 -375 -312 -374 31 0 90 5 131 10 40 5 77 7 82 4
5 -3 -4 -22 -20 -42 -45 -56 -48 -85 -14 -112 24 -19 36 -21 88 -17 33 3 77
11 97 17 94 28 347 256 405 365 34 65 73 187 73 227 0 28 -35 78 -54 78 -9 0
-15 -25 -19 -77z"/>
<path d="M1130 5570 c0 -16 5 -30 10 -30 6 0 10 14 10 30 0 17 -4 30 -10 30
-5 0 -10 -13 -10 -30z"/>
<path d="M12204 4125 c-37 -63 -213 -458 -208 -467 2 -3 18 -3 35 2 29 9 31 8
25 -15 -5 -18 -2 -25 8 -25 19 0 62 57 72 94 l7 30 -32 -23 c-18 -13 -34 -21
-36 -19 -3 2 15 54 40 115 55 138 127 345 121 350 -2 3 -17 -16 -32 -42z"/>
<path d="M12172 3863 c-25 -48 -26 -53 -12 -53 14 0 42 58 38 78 -3 12 -11 4
-26 -25z"/>
<path d="M11990 3540 c-11 -11 -20 -33 -20 -49 0 -16 -7 -48 -15 -71 -20 -57
-19 -67 6 -44 24 21 79 130 79 155 0 26 -28 31 -50 9z"/>
<path d="M11902 3295 c-17 -36 -15 -41 8 -20 20 18 27 45 12 45 -5 0 -14 -11
-20 -25z"/>
<path d="M2000 2781 c0 -46 1446 -1481 1492 -1481 37 0 -56 99 -554 594 -546
541 -884 868 -920 887 -12 6 -18 6 -18 0z"/>
<path d="M2515 2402 c497 -490 1053 -998 1318 -1205 93 -72 127 -90 127 -67 0
18 -135 153 -275 274 -180 156 -446 393 -870 776 -370 335 -514 460 -530 460
-5 -1 98 -107 230 -238z"/>
<path d="M11143 2308 c-60 -63 -205 -250 -278 -358 -70 -105 -100 -171 -110
-246 l-6 -49 21 25 c132 153 245 284 325 375 199 225 199 265 0 74 -69 -67
-127 -120 -130 -117 -2 2 43 67 101 144 106 140 142 194 126 194 -4 0 -26 -19
-49 -42z"/>
<path d="M5620 1515 c-11 -14 -10 -19 7 -37 17 -17 24 -18 42 -8 31 16 25 54
-10 58 -15 2 -31 -4 -39 -13z"/>
<path d="M9475 1081 c-101 -53 -217 -122 -274 -163 -13 -9 -20 -21 -17 -27 5
-7 29 0 69 20 157 80 357 202 357 220 0 18 -26 8 -135 -50z"/>
<path d="M9785 1111 c-135 -64 -556 -306 -615 -354 l-25 -20 35 7 c19 3 129
56 244 118 328 174 446 245 446 269 0 15 -22 10 -85 -20z"/>
<path d="M9810 995 c-18 -22 -1 -37 36 -33 21 2 29 8 29 23 0 26 -46 33 -65
10z"/>
</g>
</svg>
